<?xml version="1.0" encoding="iso-8859-1"?>
<!-- Generator: Adobe Illustrator 19.0.0, SVG Export Plug-In . SVG Version: 6.00 Build 0)  -->
<svg version="1.1" id="Layer_1" xmlns="http://www.w3.org/2000/svg" xmlns:xlink="http://www.w3.org/1999/xlink" x="0px" y="0px"
	 viewBox="0 0 455 455" style="enable-background:new 0 0 455 455;" xml:space="preserve">
<g>
	<polygon style="fill:#37495E;" points="156.176,87 192,0 227.824,87 	"/>
	<polygon style="fill:#F4A026;" points="240,85 144,85 133.5,122 250.5,122 	"/>
	<rect x="114.5" y="120" style="fill:#37495E;" width="155" height="40"/>
	<path style="fill:#4898DA;" d="M426.998,221.613c0.003,0.257,0.003,0.514,0,0.77C426.933,228.82,421.683,234,415.245,234h-153.48
		c-6.597,0-11.998-5.434-11.745-12.025c0.004-0.095,0.008-0.191,0.012-0.287c0.574-11.72,9.117-21.764,20.608-24.138
		c4.279-0.884,8.479-0.667,12.289,0.39C288.52,179.46,305.69,166,326,166c18.4,0,34.22,11.05,41.19,26.87
		c6.26-4.906,14.124-7.842,22.687-7.87C410.389,184.933,426.788,201.102,426.998,221.613z"/>
	<path style="fill:#4898DA;" d="M204.987,377.613c0.003,0.257,0.003,0.514,0,0.77C204.922,384.82,199.672,390,193.234,390H39.754
		c-6.597,0-11.998-5.434-11.745-12.025c0.004-0.095,0.008-0.191,0.012-0.287c0.574-11.72,9.117-21.764,20.608-24.138
		c4.279-0.884,8.479-0.667,12.289,0.39c5.59-18.48,22.76-31.94,43.07-31.94c18.4,0,34.22,11.05,41.19,26.87
		c6.26-4.906,14.124-7.842,22.687-7.87C188.378,340.933,204.777,357.102,204.987,377.613z"/>
	<rect x="92" y="155" style="fill:#F4A026;" width="200" height="200"/>
	<path style="fill:#37495E;" d="M191.3,341c-47.035,0-85.3-38.265-85.3-85.3v-1.4c0-47.035,38.265-85.3,85.3-85.3h1.4
		c47.035,0,85.3,38.265,85.3,85.3v1.4c0,47.035-38.265,85.3-85.3,85.3H191.3z"/>
	<path style="fill:#EFEFEF;" d="M192.7,325h-1.4c-38.273,0-69.3-31.027-69.3-69.3v-1.4c0-38.273,31.027-69.3,69.3-69.3h1.4
		c38.273,0,69.3,31.027,69.3,69.3v1.4C262,293.973,230.973,325,192.7,325z"/>
	<path style="fill:#37495E;" d="M200,212.398V255c0,4.418-3.582,8-8,8h-42.602c-4.352,0-7.881-3.527-7.882-7.879
		c0-0.079,0-0.159,0-0.238c-0.001-4.354,3.528-7.884,7.882-7.884H184v-34.602c0-4.354,3.53-7.883,7.884-7.882
		c0.079,0,0.159,0,0.238,0C196.473,204.518,200,208.047,200,212.398z"/>
	<rect x="112.5" y="355" style="fill:#37495E;" width="159" height="100"/>
	<rect x="150.5" y="355" style="fill:#EFEFEF;" width="83" height="100"/>
	<path style="fill:#37495E;" d="M192.51,306c-0.02,0-0.05,0-0.08,0l0,0c-4.42,0-8-3.58-8-8l0,0c0-4.42,3.58-8,8-8l0,0
		c0.03,0,0.06,0,0.09,0l0,0c0.02,0,0.04,0,0.06,0l0,0c4.41-0.02,8.01,3.55,8.03,7.97l0,0c0.01,4.42-3.55,8.01-7.97,8.03l0,0
		c-0.01,0-0.02,0-0.03,0l0,0C192.58,306,192.54,306,192.51,306z M156.19,291.57c-3.15-3.09-3.21-8.16-0.12-11.32l0,0
		c3.09-3.15,8.16-3.21,11.32-0.12l0,0c3.15,3.1,3.21,8.16,0.12,11.32l0,0c-1.57,1.6-3.64,2.4-5.72,2.4l0,0
		C159.77,293.85,157.75,293.09,156.19,291.57z M217.36,290.85c-3.16-3.08-3.23-8.15-0.15-11.31l0,0c3.08-3.17,8.14-3.24,11.31-0.16
		l0,0c3.17,3.08,3.24,8.15,0.16,11.31l0,0c0,0,0,0-0.01,0l0,0c-1.56,1.62-3.65,2.42-5.73,2.42l0,0
		C220.93,293.11,218.92,292.36,217.36,290.85z M227,254.46c-0.01-4.42,3.56-8.01,7.98-8.02l0,0c4.41-0.02,8.01,3.55,8.02,7.97l0,0
		c0.01,4.42-3.56,8.01-7.98,8.03l0,0c0,0-0.01,0-0.02,0l0,0C230.59,262.44,227.01,258.87,227,254.46z M155.53,230.54
		c-3.16-3.08-3.22-8.15-0.13-11.31l0,0c3.08-3.16,8.15-3.22,11.31-0.13l0,0c3.16,3.09,3.22,8.15,0.13,11.31l0,0
		c-1.57,1.61-3.64,2.41-5.72,2.41l0,0C159.1,232.82,157.08,232.06,155.53,230.54z M216.56,229.82c-3.16-3.09-3.23-8.15-0.14-11.32
		l0,0c3.08-3.16,8.15-3.23,11.31-0.14l0,0l0,0l0,0c3.16,3.09,3.23,8.15,0.14,11.31l0,0c-1.559,1.61-3.64,2.42-5.72,2.42l0,0
		C220.13,232.09,218.12,231.33,216.56,229.82z"/>
	<path style="fill:#37495E;" d="M402,96.355c-2.047,0-4.095-0.781-5.657-2.343c-10.666-10.666-28.021-10.666-38.687,0
		c-3.124,3.124-8.189,3.124-11.313,0c-10.666-10.666-28.021-10.666-38.687,0c-3.124,3.124-8.189,3.124-11.313,0
		c-3.125-3.124-3.125-8.189,0-11.313c15.127-15.127,38.745-16.717,55.657-4.77c16.912-11.948,40.529-10.358,55.657,4.77
		c3.124,3.124,3.124,8.189,0,11.313C406.095,95.574,404.047,96.355,402,96.355z"/>
</g>
<g>
</g>
<g>
</g>
<g>
</g>
<g>
</g>
<g>
</g>
<g>
</g>
<g>
</g>
<g>
</g>
<g>
</g>
<g>
</g>
<g>
</g>
<g>
</g>
<g>
</g>
<g>
</g>
<g>
</g>
</svg>
