<svg width="18" height="18" viewBox="0 0 18 18" fill="none" xmlns="http://www.w3.org/2000/svg">
<path d="M5.25 2.24998C5.05302 2.053 4.81917 1.89674 4.56179 1.79014C4.30442 1.68353 4.02858 1.62866 3.75 1.62866C3.47143 1.62866 3.19558 1.68353 2.93821 1.79014C2.68084 1.89674 2.44698 2.053 2.25 2.24998C2.05302 2.44697 1.89676 2.68082 1.79016 2.93819C1.68355 3.19556 1.62868 3.47141 1.62868 3.74998C1.62868 4.02856 1.68355 4.30441 1.79016 4.56178C1.89676 4.81915 2.05302 5.053 2.25 5.24998L12.375 15.375L16.5 16.5L15.375 12.375L5.25 2.24998Z" stroke="#2E6FF1" stroke-width="2" stroke-linecap="round" stroke-linejoin="round"/>
</svg>
